<?xml version="1.0" standalone="no"?>
<!DOCTYPE svg PUBLIC "-//W3C//DTD SVG 20010904//EN"
 "http://www.w3.org/TR/2001/REC-SVG-20010904/DTD/svg10.dtd">
<svg version="1.0" xmlns="http://www.w3.org/2000/svg"
 width="700.000000pt" height="700.000000pt" viewBox="0 0 700.000000 700.000000"
 preserveAspectRatio="xMidYMid meet">
<metadata>
Created by potrace 1.11, written by Peter Selinger 2001-2013
</metadata>
<g transform="translate(0.000000,700.000000) scale(0.100000,-0.100000)"
fill="#000000" stroke="none">
<path d="M6016 6563 c-1 -1 -42 -5 -91 -8 -98 -6 -117 -8 -285 -31 -273 -36
-707 -182 -949 -318 -35 -20 -64 -36 -66 -36 -9 0 -184 -112 -267 -170 -196
-137 -448 -371 -584 -541 -32 -41 -62 -76 -65 -79 -14 -10 -162 -227 -211
-308 -47 -77 -49 -84 -34 -100 48 -49 173 -205 247 -307 165 -227 338 -546
426 -783 32 -86 87 -253 105 -315 l13 -49 61 6 c210 20 602 123 789 206 208
92 359 173 505 268 89 59 189 131 214 153 8 8 29 25 48 39 89 67 295 268 399
390 105 122 239 313 320 452 34 61 158 310 175 354 61 157 78 204 108 304 31
105 78 313 90 400 18 130 28 241 29 349 l2 124 -488 1 c-269 1 -490 0 -491 -1z"/>
<path d="M5 5553 c3 -76 8 -151 10 -168 2 -16 6 -57 10 -89 4 -33 9 -69 11
-80 2 -12 9 -48 14 -81 51 -314 202 -716 376 -1004 85 -140 79 -131 158 -240
135 -187 298 -364 477 -520 461 -401 1058 -662 1659 -727 115 -12 123 -12 228
-15 57 -2 106 -8 109 -13 4 -5 7 -462 7 -1015 l1 -1006 23 -41 c29 -49 74 -86
126 -104 53 -17 507 -18 569 0 53 14 106 61 133 115 18 39 19 73 19 1140 0
605 -4 1135 -8 1177 -25 250 -58 420 -123 635 -285 940 -1016 1693 -1949 2010
-153 51 -275 82 -470 118 -29 5 -119 18 -225 31 -25 3 -296 8 -603 11 l-559 5
7 -139z"/>
</g>
</svg>
